<svg id="svg" version="1.1" xmlns="http://www.w3.org/2000/svg" xmlns:xlink="http://www.w3.org/1999/xlink" width="400" height="39.12483912483913" viewBox="0, 0, 400,39.12483912483913"><g id="svgg"><path id="path0" d="M6.083 6.403 C 4.307 7.196,4.333 6.988,4.333 20.207 L 4.333 31.667 6.833 31.667 L 9.333 31.667 9.348 21.625 C 9.357 15.219,9.418 11.764,9.516 12.083 C 9.732 12.788,13.168 26.073,14.117 29.875 L 14.564 31.667 17.276 31.667 L 19.987 31.667 20.151 31.042 C 20.242 30.698,21.332 26.404,22.574 21.500 C 23.816 16.596,24.901 12.358,24.985 12.083 C 25.082 11.766,25.143 15.256,25.152 21.625 L 25.167 31.667 27.667 31.667 L 30.167 31.667 30.167 18.917 L 30.167 6.167 26.263 6.167 L 22.359 6.167 22.191 6.708 C 22.099 7.006,21.863 7.888,21.667 8.667 C 21.471 9.446,21.096 10.908,20.833 11.917 C 20.571 12.925,19.783 15.963,19.082 18.667 C 17.042 26.540,17.335 26.065,16.510 22.833 C 16.217 21.688,15.606 19.325,15.153 17.583 C 14.699 15.842,13.948 12.954,13.483 11.167 C 13.018 9.379,12.530 7.523,12.398 7.042 L 12.157 6.167 9.370 6.173 C 7.414 6.178,6.434 6.246,6.083 6.403 M88.500 10.299 L 88.500 14.431 87.450 13.407 C 84.830 10.850,80.521 10.945,77.914 13.617 C 73.402 18.241,74.245 28.786,79.307 31.058 C 84.639 33.451,91.332 31.403,93.055 26.851 C 93.618 25.364,93.708 8.293,93.158 7.403 C 92.591 6.486,91.778 6.167,90.007 6.167 L 88.500 6.167 88.500 10.299 M119.750 6.400 C 119.127 6.682,118.411 7.434,118.177 8.053 C 118.058 8.368,118.000 12.323,118.000 20.094 L 118.000 31.667 120.583 31.667 L 123.167 31.667 123.167 22.990 C 123.167 18.090,123.230 14.353,123.312 14.404 C 123.392 14.453,125.767 18.357,128.589 23.080 L 133.720 31.667 136.443 31.667 L 139.167 31.667 139.167 18.917 L 139.167 6.167 136.585 6.167 L 134.003 6.167 133.960 14.932 L 133.917 23.697 130.833 18.499 C 129.137 15.640,126.809 11.714,125.658 9.775 L 123.566 6.250 121.908 6.212 C 120.795 6.186,120.086 6.248,119.750 6.400 M209.003 6.353 C 207.281 7.040,207.333 6.613,207.333 19.993 L 207.333 31.667 216.667 31.667 L 226.000 31.667 226.000 29.333 L 226.000 27.000 219.246 27.000 L 212.493 27.000 212.538 23.708 L 212.583 20.417 216.750 20.333 C 221.995 20.228,222.500 19.946,222.500 17.114 L 222.500 16.000 217.500 16.000 L 212.500 16.000 212.500 13.250 L 212.500 10.500 219.250 10.500 L 226.000 10.500 226.000 8.333 L 226.000 6.167 217.708 6.177 C 212.656 6.184,209.255 6.252,209.003 6.353 M229.667 18.901 L 229.667 31.667 232.256 31.667 L 234.846 31.667 234.798 19.762 C 234.751 8.036,234.745 7.851,234.406 7.397 C 233.669 6.410,233.281 6.255,231.405 6.193 L 229.667 6.136 229.667 18.901 M280.535 17.792 L 280.583 29.417 281.000 30.153 C 281.710 31.407,282.237 31.573,285.708 31.641 L 288.667 31.699 288.667 29.784 L 288.667 27.870 287.400 27.806 C 285.552 27.712,285.667 28.136,285.667 21.385 L 285.667 15.667 286.208 15.664 C 287.602 15.657,288.666 14.450,288.666 12.875 L 288.667 12.000 287.180 12.000 L 285.694 12.000 285.639 9.928 C 285.556 6.829,284.939 6.167,282.136 6.167 L 280.487 6.167 280.535 17.792 M347.833 8.167 L 347.833 10.167 350.435 10.167 L 353.036 10.167 352.975 8.952 C 352.868 6.840,352.040 6.185,349.458 6.174 L 347.833 6.167 347.833 8.167 M40.833 11.610 C 35.927 12.370,33.601 15.601,33.592 21.667 C 33.583 28.559,36.551 32.000,42.507 32.000 C 48.202 32.000,51.523 28.303,51.567 21.917 C 51.615 14.804,47.253 10.615,40.833 11.610 M62.667 11.600 C 58.000 12.405,55.734 14.242,55.178 17.670 C 55.077 18.291,55.002 21.495,55.001 25.208 L 55.000 31.667 57.583 31.667 L 60.167 31.667 60.167 24.860 C 60.167 18.058,60.167 18.052,60.554 17.320 C 61.707 15.139,65.456 15.147,66.741 17.333 C 67.065 17.886,67.088 18.243,67.167 24.083 C 67.270 31.731,67.241 31.667,70.636 31.667 L 72.167 31.667 72.164 25.042 C 72.160 16.802,71.961 15.628,70.283 13.950 C 68.824 12.491,64.764 11.238,62.667 11.600 M149.583 11.616 C 144.895 12.238,142.269 15.810,142.255 21.583 C 142.240 28.207,145.031 31.640,150.688 31.954 C 156.802 32.293,160.252 28.611,160.249 21.750 C 160.245 14.578,156.204 10.738,149.583 11.616 M245.500 11.596 C 240.102 12.511,237.755 15.586,237.753 21.750 C 237.751 25.487,238.562 27.877,240.447 29.689 C 245.061 34.128,253.967 32.008,255.423 26.125 L 255.536 25.667 253.429 25.667 C 251.146 25.667,250.341 25.863,249.999 26.502 C 249.349 27.716,246.057 28.072,244.648 27.081 C 243.770 26.464,243.181 25.368,243.051 24.109 L 242.953 23.167 249.418 23.167 L 255.882 23.167 255.785 21.125 C 255.477 14.622,251.174 10.635,245.500 11.596 M266.417 11.602 C 261.592 12.280,259.061 15.491,258.880 21.167 C 258.767 24.697,259.307 26.878,260.777 28.834 C 264.432 33.696,273.371 32.910,275.958 27.500 C 276.904 25.521,277.012 25.667,274.605 25.667 C 272.268 25.667,271.834 25.777,271.000 26.585 C 269.506 28.033,266.521 28.065,265.218 26.646 C 263.394 24.662,263.351 18.979,265.144 16.941 C 266.484 15.418,269.813 15.635,270.927 17.319 L 271.378 18.000 273.950 18.000 L 276.522 18.000 276.414 17.625 C 275.223 13.490,271.016 10.956,266.417 11.602 M312.417 11.679 C 307.863 12.443,305.401 16.026,305.438 21.833 C 305.480 28.401,308.687 32.000,314.497 32.000 C 320.277 32.000,323.424 28.380,323.409 21.750 C 323.393 14.378,319.203 10.540,312.417 11.679 M334.083 11.660 C 331.047 12.143,328.673 13.537,327.723 15.395 C 326.925 16.954,326.839 17.887,326.836 25.042 L 326.833 31.667 329.417 31.667 L 332.000 31.667 332.000 24.869 C 332.000 18.150,332.004 18.062,332.375 17.327 C 333.391 15.312,336.999 15.129,338.350 17.022 L 338.750 17.583 338.833 23.750 C 338.940 31.648,338.949 31.667,342.400 31.667 L 344.000 31.667 344.000 25.181 C 344.000 16.878,343.792 15.676,342.058 13.942 C 340.468 12.351,336.633 11.254,334.083 11.660 M362.750 11.658 C 357.696 12.472,355.125 16.222,355.383 22.403 C 355.525 25.825,356.274 27.892,357.982 29.579 C 362.592 34.133,371.631 32.063,373.063 26.125 L 373.173 25.667 371.097 25.667 C 368.758 25.667,368.450 25.745,367.531 26.575 C 365.973 27.983,363.254 28.083,361.861 26.784 C 359.703 24.772,359.876 18.080,362.125 16.565 C 363.852 15.401,366.588 15.834,367.523 17.418 L 367.866 18.000 370.451 18.000 L 373.036 18.000 372.921 17.542 C 371.916 13.537,367.379 10.912,362.750 11.658 M382.750 11.657 C 378.969 12.272,376.756 14.290,376.540 17.321 C 376.294 20.757,378.146 22.486,383.430 23.755 C 387.549 24.744,388.333 25.142,388.333 26.245 C 388.333 29.002,381.919 28.627,381.165 25.826 L 380.987 25.167 378.472 25.167 L 375.957 25.167 376.073 26.189 C 376.513 30.077,378.897 31.812,384.000 31.957 C 390.404 32.138,393.417 30.073,393.417 25.504 C 393.417 21.918,392.043 20.868,385.250 19.261 C 382.242 18.549,381.173 17.798,381.684 16.755 C 382.568 14.949,385.763 15.049,387.624 16.942 L 388.664 18.000 390.771 18.000 L 392.879 18.000 392.773 17.230 C 392.244 13.370,387.711 10.849,382.750 11.657 M163.833 12.156 C 163.833 12.247,164.175 13.280,164.593 14.452 C 166.012 18.432,166.696 20.376,169.124 27.333 L 170.607 31.583 173.268 31.629 L 175.929 31.675 176.282 30.629 C 176.476 30.054,177.048 28.421,177.555 27.000 C 179.140 22.549,180.148 19.703,181.450 16.000 C 182.144 14.029,182.746 12.323,182.790 12.208 C 182.938 11.820,178.374 11.926,177.716 12.327 C 176.895 12.827,176.793 13.120,173.958 23.125 C 173.588 24.431,173.233 25.500,173.170 25.500 C 173.106 25.500,172.286 22.781,171.348 19.458 C 170.409 16.135,169.547 13.117,169.432 12.750 L 169.223 12.083 166.528 12.038 C 164.834 12.009,163.833 12.053,163.833 12.156 M299.409 12.170 C 295.563 12.934,293.263 14.861,292.151 18.250 C 291.785 19.364,291.765 19.693,291.705 25.542 L 291.641 31.667 294.237 31.667 L 296.833 31.667 296.833 26.114 C 296.833 18.020,297.138 17.396,301.191 17.201 L 302.833 17.122 302.833 14.561 L 302.833 12.000 301.458 12.018 C 300.702 12.028,299.780 12.097,299.409 12.170 M347.833 21.819 L 347.833 31.667 350.417 31.667 L 353.000 31.667 353.000 22.817 C 353.000 11.698,353.138 12.138,349.625 12.027 L 347.833 11.971 347.833 21.819 M44.107 16.251 C 48.241 18.312,47.027 27.838,42.630 27.832 C 39.769 27.829,38.583 25.997,38.583 21.583 C 38.583 16.976,40.959 14.683,44.107 16.251 M152.763 16.150 C 156.198 17.709,156.196 25.958,152.762 27.518 C 151.165 28.243,148.961 27.608,148.191 26.199 C 146.619 23.327,147.033 17.684,148.893 16.622 C 150.339 15.796,151.636 15.637,152.763 16.150 M248.665 16.332 C 249.432 16.724,249.958 17.420,250.270 18.455 C 250.717 19.940,250.989 19.833,246.750 19.833 L 243.000 19.833 243.000 19.283 C 243.000 16.746,246.205 15.077,248.665 16.332 M315.926 16.148 C 319.392 17.722,319.406 25.916,315.946 27.558 C 313.741 28.605,311.448 27.258,310.733 24.496 C 309.328 19.072,312.200 14.455,315.926 16.148 M86.121 16.477 C 89.371 18.135,89.349 25.873,86.090 27.353 C 83.456 28.550,80.913 27.030,80.240 23.857 C 79.121 18.574,82.332 14.544,86.121 16.477 " stroke="none" fill="#252b3b" fill-rule="evenodd"></path><path id="path1" d="M0.000 19.500 L 0.000 39.000 200.000 39.000 L 400.000 39.000 400.000 19.500 L 400.000 0.000 200.000 0.000 L 0.000 0.000 0.000 19.500 M12.904 8.625 C 14.306 13.999,14.652 15.331,15.170 17.333 C 15.649 19.189,16.488 22.409,17.034 24.491 L 17.228 25.232 17.430 24.574 C 17.541 24.213,17.911 22.829,18.253 21.500 C 19.133 18.082,19.959 14.900,21.596 8.625 L 22.238 6.167 26.202 6.167 L 30.167 6.167 30.167 18.917 L 30.167 31.667 27.668 31.667 L 25.169 31.667 25.126 21.792 L 25.083 11.917 23.860 16.750 C 23.187 19.408,22.065 23.854,21.367 26.629 L 20.097 31.674 17.280 31.629 L 14.462 31.583 13.880 29.333 C 13.559 28.096,13.239 26.821,13.167 26.500 C 13.095 26.179,12.762 24.867,12.426 23.583 C 12.090 22.300,11.289 19.189,10.646 16.669 C 10.003 14.150,9.445 12.056,9.405 12.016 C 9.366 11.977,9.333 16.382,9.333 21.806 L 9.333 31.667 6.833 31.667 L 4.333 31.667 4.333 20.011 C 4.333 7.897,4.339 7.798,5.053 7.020 C 5.735 6.277,6.226 6.180,9.339 6.173 L 12.262 6.167 12.904 8.625 M92.730 6.814 C 93.709 7.763,93.689 7.529,93.624 16.930 C 93.558 26.575,93.544 26.703,92.318 28.555 C 89.909 32.191,81.883 33.342,78.251 30.573 C 74.668 27.841,73.742 19.997,76.453 15.344 C 78.894 11.154,84.354 10.172,87.533 13.351 C 87.982 13.799,88.383 14.167,88.425 14.167 C 88.466 14.167,88.500 12.360,88.500 10.152 L 88.500 6.137 90.325 6.194 C 92.141 6.250,92.152 6.252,92.730 6.814 M126.109 10.375 C 127.487 12.690,129.770 16.525,131.182 18.899 L 133.750 23.215 133.793 14.691 L 133.836 6.167 136.502 6.167 L 139.167 6.167 139.167 18.917 L 139.167 31.667 136.375 31.659 L 133.583 31.652 130.637 26.701 C 129.017 23.978,126.729 20.137,125.554 18.167 L 123.417 14.583 123.373 23.125 L 123.330 31.667 120.665 31.667 L 118.000 31.667 118.000 20.011 C 118.000 12.159,118.058 8.202,118.178 7.886 C 118.671 6.583,119.531 6.182,121.844 6.173 L 123.604 6.167 126.109 10.375 M226.000 8.333 L 226.000 10.500 219.333 10.500 L 212.667 10.500 212.667 13.250 L 212.667 16.000 217.583 16.000 L 222.500 16.000 222.500 17.411 C 222.500 20.145,221.810 20.500,216.505 20.500 L 212.667 20.500 212.667 23.665 L 212.667 26.830 219.292 26.873 L 225.917 26.917 225.963 29.292 L 226.009 31.667 216.668 31.667 L 207.327 31.667 207.372 19.708 L 207.417 7.750 207.786 7.232 C 208.554 6.156,208.379 6.175,217.625 6.170 L 226.000 6.167 226.000 8.333 M233.627 6.499 C 234.904 7.278,234.832 6.487,234.833 19.792 L 234.833 31.667 232.167 31.667 L 229.500 31.667 229.500 18.917 L 229.500 6.167 231.292 6.167 C 232.785 6.168,233.174 6.223,233.627 6.499 M284.753 6.667 C 285.552 7.414,285.667 7.831,285.667 9.992 L 285.667 12.000 287.250 12.000 L 288.833 12.000 288.829 12.542 C 288.817 14.273,287.967 15.437,286.571 15.637 L 285.750 15.754 285.702 21.002 C 285.638 27.963,285.596 27.833,287.911 27.833 L 288.833 27.833 288.833 29.732 C 288.833 31.970,288.968 31.838,286.695 31.823 C 282.614 31.796,281.501 31.439,280.819 29.936 C 280.524 29.287,280.507 28.620,280.504 17.694 L 280.500 6.138 282.404 6.194 C 284.165 6.246,284.341 6.281,284.753 6.667 M352.346 6.952 C 352.995 7.648,353.000 7.665,353.000 8.994 L 353.000 10.333 350.333 10.333 L 347.667 10.333 347.667 8.236 L 347.667 6.139 349.679 6.194 L 351.691 6.250 352.346 6.952 M45.250 11.781 C 53.766 13.888,53.979 29.340,45.525 31.693 C 38.410 33.673,33.420 29.536,33.432 21.667 C 33.444 14.092,38.272 10.053,45.250 11.781 M153.854 11.758 C 161.612 13.421,163.019 27.558,155.776 31.077 C 149.975 33.895,143.817 31.157,142.483 25.167 C 140.469 16.121,145.659 10.001,153.854 11.758 M317.104 11.766 C 324.786 13.370,326.161 27.795,318.951 31.138 C 312.967 33.913,306.944 31.093,305.594 24.884 C 303.682 16.089,308.967 10.066,317.104 11.766 M65.781 11.740 C 69.213 12.465,71.048 13.944,71.874 16.653 C 72.179 17.654,72.216 18.356,72.290 24.708 L 72.371 31.667 70.448 31.667 C 67.035 31.667,67.000 31.591,66.999 24.047 C 66.998 17.855,66.947 17.447,66.079 16.685 C 64.466 15.269,61.718 15.549,60.675 17.236 C 60.345 17.771,60.333 18.023,60.333 24.728 L 60.333 31.667 57.660 31.667 L 54.987 31.667 55.035 24.375 C 55.089 16.222,55.098 16.158,56.397 14.453 C 58.043 12.292,62.414 11.029,65.781 11.740 M108.128 11.751 C 112.393 12.757,114.583 16.149,114.583 21.750 C 114.583 28.521,111.430 32.093,105.500 32.041 C 99.422 31.987,96.251 28.068,96.544 20.972 C 96.833 13.966,101.560 10.203,108.128 11.751 M197.462 11.751 C 201.465 12.695,203.764 15.999,203.957 21.083 C 204.218 27.994,200.877 32.046,194.917 32.046 C 189.032 32.046,185.790 28.356,185.798 21.667 C 185.806 14.290,190.675 10.151,197.462 11.751 M249.133 11.737 C 252.341 12.425,254.562 14.621,255.468 18.000 C 255.831 19.351,256.085 22.187,255.907 22.895 L 255.797 23.333 249.377 23.333 L 242.957 23.333 243.061 23.958 C 243.680 27.710,247.280 28.909,250.121 26.311 L 250.826 25.667 253.246 25.667 C 254.577 25.667,255.667 25.685,255.667 25.708 C 255.663 27.700,252.664 30.843,249.960 31.689 C 243.044 33.855,237.624 29.488,237.624 21.750 C 237.624 14.336,242.297 10.271,249.133 11.737 M270.185 11.754 C 273.228 12.394,275.103 14.036,276.318 17.125 L 276.662 18.000 273.956 17.994 L 271.250 17.987 270.785 17.316 C 269.956 16.117,267.894 15.622,266.376 16.256 C 263.047 17.647,262.957 25.549,266.250 27.295 C 267.349 27.878,270.833 27.415,270.833 26.686 C 270.833 26.031,272.102 25.667,274.384 25.667 C 277.053 25.667,276.972 25.581,276.075 27.446 C 273.074 33.685,262.937 33.771,259.908 27.583 C 258.739 25.196,258.349 20.876,259.056 18.167 C 260.373 13.122,264.737 10.608,270.185 11.754 M337.667 11.750 C 339.964 12.233,342.050 13.460,342.921 14.841 C 343.932 16.442,344.000 17.063,344.000 24.684 L 344.000 31.667 342.179 31.667 C 338.892 31.667,338.833 31.534,338.833 24.162 C 338.833 20.648,338.766 18.379,338.647 17.907 C 338.011 15.383,333.800 14.995,332.426 17.334 C 332.098 17.892,332.081 18.206,332.032 24.792 L 331.980 31.667 329.312 31.667 L 326.644 31.667 326.704 24.708 C 326.772 16.943,326.825 16.548,328.043 14.725 C 329.626 12.357,334.051 10.989,337.667 11.750 M366.750 11.735 C 369.327 12.309,371.134 13.642,372.306 15.833 C 372.499 16.195,373.166 17.842,373.167 17.958 C 373.167 17.981,371.979 18.000,370.528 18.000 L 367.889 18.000 367.339 17.315 C 366.074 15.741,363.318 15.523,361.861 16.883 C 360.452 18.197,359.990 21.701,360.819 24.782 C 361.636 27.815,365.272 28.612,367.788 26.311 L 368.493 25.667 370.911 25.667 L 373.329 25.667 372.974 26.625 C 370.528 33.235,360.384 34.218,356.775 28.196 C 354.747 24.810,354.682 19.055,356.632 15.536 C 358.373 12.395,362.595 10.808,366.750 11.735 M387.028 11.734 C 390.146 12.331,391.954 13.877,392.718 16.599 C 393.183 18.257,393.277 18.167,391.067 18.167 C 388.797 18.167,388.361 18.014,387.425 16.895 C 385.751 14.892,381.667 15.205,381.667 17.336 C 381.667 18.036,384.216 19.126,386.917 19.580 C 391.215 20.302,393.566 22.333,393.578 25.333 C 393.595 29.770,390.402 32.167,384.471 32.167 C 379.482 32.167,376.298 29.962,376.038 26.327 L 375.955 25.167 378.526 25.167 L 381.098 25.167 381.287 25.875 C 381.982 28.468,387.763 28.892,388.264 26.386 C 388.462 25.400,387.263 24.682,384.417 24.082 C 378.540 22.844,376.423 21.188,376.433 17.833 C 376.445 13.254,381.067 10.594,387.028 11.734 M169.249 11.998 C 169.341 12.148,171.464 19.528,172.594 23.626 C 172.853 24.566,173.117 25.279,173.181 25.209 C 173.281 25.101,173.957 22.941,174.211 21.917 C 174.693 19.978,176.715 13.366,176.947 12.970 C 177.499 12.031,178.136 11.833,180.613 11.833 C 183.219 11.833,183.092 11.710,182.414 13.583 C 182.116 14.408,181.607 15.833,181.284 16.750 C 180.961 17.667,180.310 19.504,179.837 20.833 C 179.365 22.162,178.728 23.962,178.421 24.833 C 178.114 25.704,177.476 27.504,177.003 28.833 C 176.531 30.162,176.114 31.344,176.077 31.458 C 176.017 31.647,170.500 31.795,170.500 31.608 C 170.500 31.575,170.080 30.356,169.567 28.899 C 169.054 27.442,168.574 26.063,168.500 25.833 C 168.426 25.604,167.938 24.217,167.415 22.750 C 166.893 21.283,166.366 19.783,166.246 19.417 C 166.060 18.849,164.688 14.935,163.909 12.750 C 163.778 12.383,163.670 12.027,163.669 11.958 C 163.665 11.767,169.130 11.806,169.249 11.998 M302.833 14.475 L 302.833 17.117 301.366 17.221 C 297.190 17.517,297.009 17.874,297.004 25.792 L 297.000 31.667 294.333 31.667 L 291.667 31.667 291.667 25.702 C 291.667 19.130,291.719 18.679,292.707 16.677 C 294.136 13.782,297.660 11.890,301.708 11.846 L 302.833 11.833 302.833 14.475 M351.572 12.164 C 351.945 12.346,352.419 12.745,352.625 13.050 L 353.000 13.604 353.000 22.635 L 353.000 31.667 350.333 31.667 L 347.667 31.667 347.667 21.861 C 347.667 16.468,347.717 12.006,347.778 11.944 C 348.053 11.669,350.896 11.834,351.572 12.164 M104.333 16.153 C 100.575 17.470,100.539 26.293,104.287 27.570 C 107.006 28.497,109.023 26.772,109.492 23.119 C 110.124 18.206,107.723 14.964,104.333 16.153 M194.083 15.983 C 190.977 16.778,189.723 22.372,191.818 26.083 C 193.451 28.972,197.743 28.026,198.570 24.595 C 199.813 19.441,197.549 15.096,194.083 15.983 M40.827 16.345 C 37.794 17.684,37.726 25.775,40.735 27.319 C 43.959 28.974,46.417 26.528,46.417 21.667 C 46.417 17.158,44.063 14.917,40.827 16.345 M149.459 16.427 C 146.499 17.968,146.543 25.821,149.519 27.298 C 153.088 29.070,155.705 25.804,155.125 20.303 C 154.753 16.779,152.173 15.014,149.459 16.427 M245.034 16.355 C 244.166 16.784,243.552 17.552,243.236 18.602 C 242.838 19.925,242.577 19.833,246.758 19.833 L 250.515 19.833 250.399 19.208 C 249.898 16.512,247.400 15.183,245.034 16.355 M312.655 16.458 C 311.851 16.866,311.685 17.045,311.167 18.067 L 310.583 19.217 310.596 21.650 C 310.619 25.951,311.785 27.769,314.500 27.740 C 317.242 27.711,318.821 24.655,318.330 20.330 C 317.922 16.732,315.448 15.044,312.655 16.458 M82.572 16.482 C 79.293 17.971,79.293 25.579,82.571 27.289 C 83.885 27.974,86.075 27.578,87.120 26.467 C 88.863 24.611,88.818 19.045,87.046 17.253 C 85.990 16.186,83.985 15.840,82.572 16.482 " stroke="none" fill="#fbfbfb" fill-rule="evenodd"></path><path id="path2" d="M133.872 14.635 C 133.845 20.676,133.781 23.154,133.654 23.076 C 133.556 23.015,133.575 23.124,133.696 23.319 C 133.945 23.718,134.048 18.691,133.958 10.447 C 133.932 8.047,133.893 9.932,133.872 14.635 M229.579 18.917 C 229.579 25.975,229.600 28.838,229.625 25.279 C 229.650 21.720,229.650 15.945,229.625 12.446 C 229.600 8.947,229.579 11.858,229.579 18.917 M347.703 8.208 L 347.667 10.333 350.375 10.296 L 353.083 10.259 350.463 10.209 L 347.844 10.158 347.791 8.121 L 347.739 6.083 347.703 8.208 M284.181 6.375 C 284.220 6.398,284.514 6.642,284.834 6.917 L 285.417 7.417 284.927 6.875 C 284.658 6.577,284.364 6.333,284.274 6.333 C 284.185 6.333,284.143 6.352,284.181 6.375 M5.073 7.042 L 4.583 7.583 5.125 7.094 C 5.423 6.825,5.667 6.581,5.667 6.552 C 5.667 6.423,5.529 6.537,5.073 7.042 M118.740 7.042 L 118.250 7.583 118.792 7.094 C 119.090 6.825,119.333 6.581,119.333 6.552 C 119.333 6.423,119.196 6.537,118.740 7.042 M93.577 16.417 C 93.577 21.092,93.599 23.028,93.625 20.720 C 93.651 18.412,93.651 14.587,93.625 12.220 C 93.599 9.853,93.577 11.742,93.577 16.417 M212.568 13.250 C 212.568 14.808,212.593 15.468,212.624 14.717 C 212.655 13.965,212.655 12.690,212.624 11.883 C 212.594 11.077,212.568 11.692,212.568 13.250 M365.208 11.615 C 365.369 11.657,365.631 11.657,365.792 11.615 C 365.952 11.573,365.821 11.539,365.500 11.539 C 365.179 11.539,365.048 11.573,365.208 11.615 M163.669 12.125 C 163.671 12.342,163.707 12.361,163.809 12.200 C 163.915 12.034,164.566 11.995,166.624 12.033 C 168.097 12.061,169.267 12.027,169.225 11.958 C 169.037 11.656,163.667 11.817,163.669 12.125 M179.000 11.944 C 180.789 12.065,182.963 12.073,182.891 11.958 C 182.849 11.890,181.787 11.847,180.532 11.863 C 179.277 11.880,178.588 11.916,179.000 11.944 M301.042 11.955 C 301.385 11.991,301.948 11.991,302.292 11.955 C 302.635 11.919,302.354 11.889,301.667 11.889 C 300.979 11.889,300.698 11.919,301.042 11.955 M347.743 12.042 C 347.699 12.156,347.684 16.637,347.708 22.000 L 347.753 31.750 347.793 21.881 L 347.833 12.012 349.458 11.958 L 351.083 11.903 349.453 11.868 C 348.276 11.843,347.801 11.891,347.743 12.042 M288.712 12.667 C 288.712 13.079,288.745 13.248,288.784 13.042 C 288.824 12.835,288.824 12.498,288.784 12.292 C 288.745 12.085,288.712 12.254,288.712 12.667 M87.000 12.885 C 87.000 12.914,87.244 13.158,87.542 13.427 L 88.083 13.917 87.594 13.375 C 87.138 12.870,87.000 12.757,87.000 12.885 M378.075 13.708 L 377.417 14.417 378.125 13.758 C 378.784 13.145,378.910 13.000,378.784 13.000 C 378.757 13.000,378.438 13.319,378.075 13.708 M390.993 13.708 C 391.402 14.144,391.758 14.500,391.785 14.500 C 391.910 14.500,391.778 14.350,391.042 13.660 L 390.250 12.917 390.993 13.708 M144.742 13.875 L 144.083 14.583 144.792 13.925 C 145.450 13.312,145.577 13.167,145.450 13.167 C 145.423 13.167,145.105 13.485,144.742 13.875 M261.333 13.917 C 260.928 14.329,260.635 14.667,260.681 14.667 C 260.726 14.667,261.095 14.329,261.500 13.917 C 261.905 13.504,262.199 13.167,262.153 13.167 C 262.107 13.167,261.738 13.504,261.333 13.917 M320.667 13.750 C 320.978 14.071,321.270 14.333,321.315 14.333 C 321.361 14.333,321.144 14.071,320.833 13.750 C 320.522 13.429,320.230 13.167,320.185 13.167 C 320.139 13.167,320.356 13.429,320.667 13.750 M357.909 13.875 L 357.250 14.583 357.958 13.925 C 358.617 13.312,358.743 13.167,358.617 13.167 C 358.590 13.167,358.271 13.485,357.909 13.875 M157.167 13.385 C 157.167 13.414,157.410 13.658,157.708 13.927 L 158.250 14.417 157.760 13.875 C 157.304 13.370,157.167 13.257,157.167 13.385 M56.740 14.042 L 56.250 14.583 56.792 14.094 C 57.090 13.825,57.333 13.581,57.333 13.552 C 57.333 13.423,57.196 13.537,56.740 14.042 M328.573 14.042 L 328.083 14.583 328.625 14.094 C 329.130 13.638,329.243 13.500,329.115 13.500 C 329.086 13.500,328.842 13.744,328.573 14.042 M294.158 14.625 L 293.583 15.250 294.208 14.676 C 294.790 14.141,294.910 14.000,294.783 14.000 C 294.755 14.000,294.474 14.281,294.158 14.625 M123.207 23.042 L 123.247 31.750 123.292 23.199 C 123.327 16.446,123.380 14.675,123.543 14.773 C 123.681 14.856,123.674 14.803,123.521 14.615 C 123.395 14.460,123.264 14.333,123.230 14.333 C 123.195 14.333,123.185 18.252,123.207 23.042 M42.042 15.953 C 42.294 15.991,42.706 15.991,42.958 15.953 C 43.210 15.915,43.004 15.883,42.500 15.883 C 41.996 15.883,41.790 15.915,42.042 15.953 M150.875 15.953 C 151.127 15.991,151.540 15.991,151.792 15.953 C 152.044 15.915,151.837 15.883,151.333 15.883 C 150.829 15.883,150.623 15.915,150.875 15.953 M246.460 15.951 C 246.668 15.991,246.968 15.990,247.127 15.948 C 247.286 15.906,247.117 15.874,246.750 15.875 C 246.383 15.877,246.253 15.911,246.460 15.951 M267.627 15.951 C 267.834 15.991,268.134 15.990,268.294 15.948 C 268.453 15.906,268.283 15.874,267.917 15.875 C 267.550 15.877,267.420 15.911,267.627 15.951 M314.042 15.953 C 314.294 15.991,314.706 15.991,314.958 15.953 C 315.210 15.915,315.004 15.883,314.500 15.883 C 313.996 15.883,313.790 15.915,314.042 15.953 M364.127 15.951 C 364.334 15.991,364.634 15.990,364.794 15.948 C 364.953 15.906,364.783 15.874,364.417 15.875 C 364.050 15.877,363.920 15.911,364.127 15.951 M83.877 16.120 C 84.131 16.158,84.506 16.157,84.711 16.117 C 84.916 16.078,84.708 16.046,84.250 16.048 C 83.792 16.049,83.624 16.081,83.877 16.120 M386.667 16.052 C 386.667 16.081,386.910 16.325,387.208 16.594 L 387.750 17.083 387.260 16.542 C 386.804 16.037,386.667 15.923,386.667 16.052 M153.167 16.385 C 153.167 16.414,153.410 16.658,153.708 16.927 L 154.250 17.417 153.760 16.875 C 153.304 16.370,153.167 16.257,153.167 16.385 M316.833 16.917 C 317.144 17.237,317.436 17.500,317.482 17.500 C 317.528 17.500,317.311 17.237,317.000 16.917 C 316.689 16.596,316.397 16.333,316.351 16.333 C 316.305 16.333,316.522 16.596,316.833 16.917 M376.381 17.917 C 376.382 18.375,376.415 18.543,376.453 18.289 C 376.491 18.036,376.490 17.661,376.451 17.456 C 376.411 17.251,376.380 17.458,376.381 17.917 M392.833 17.661 C 392.833 17.966,392.694 17.993,390.875 18.042 L 388.917 18.095 390.958 18.131 L 393.000 18.167 393.000 17.750 C 393.000 17.521,392.962 17.333,392.917 17.333 C 392.871 17.333,392.833 17.481,392.833 17.661 M60.243 24.833 C 60.243 28.637,60.265 30.194,60.291 28.292 C 60.318 26.390,60.318 23.277,60.291 21.375 C 60.265 19.473,60.243 21.029,60.243 24.833 M222.132 18.964 L 221.847 19.583 222.173 19.190 C 222.353 18.973,222.500 18.692,222.500 18.565 C 222.500 18.222,222.446 18.281,222.132 18.964 M67.075 24.250 C 67.075 27.367,67.097 28.618,67.125 27.031 C 67.152 25.444,67.152 22.894,67.125 21.364 C 67.097 19.835,67.075 21.133,67.075 24.250 M326.743 25.167 C 326.743 28.787,326.765 30.269,326.791 28.458 C 326.818 26.648,326.818 23.685,326.791 21.875 C 326.765 20.065,326.743 21.546,326.743 25.167 M255.705 19.500 C 255.705 19.821,255.740 19.952,255.782 19.792 C 255.823 19.631,255.823 19.369,255.782 19.208 C 255.740 19.048,255.705 19.179,255.705 19.500 M305.372 20.000 C 305.372 20.321,305.406 20.452,305.448 20.292 C 305.490 20.131,305.490 19.869,305.448 19.708 C 305.406 19.548,305.372 19.679,305.372 20.000 M72.242 25.667 C 72.242 29.012,72.264 30.381,72.291 28.708 C 72.319 27.035,72.319 24.298,72.291 22.625 C 72.264 20.952,72.242 22.321,72.242 25.667 M318.379 20.500 C 318.379 20.912,318.411 21.081,318.451 20.875 C 318.491 20.669,318.491 20.331,318.451 20.125 C 318.411 19.919,318.379 20.087,318.379 20.500 M88.379 20.667 C 88.379 21.079,88.411 21.248,88.451 21.042 C 88.491 20.835,88.491 20.498,88.451 20.292 C 88.411 20.085,88.379 20.254,88.379 20.667 M323.562 21.750 C 323.563 22.758,323.590 23.149,323.623 22.619 C 323.657 22.088,323.656 21.263,323.623 20.786 C 323.589 20.308,323.562 20.742,323.562 21.750 M147.225 21.500 C 147.225 22.279,147.254 22.598,147.289 22.208 C 147.324 21.819,147.324 21.181,147.289 20.792 C 147.254 20.402,147.225 20.721,147.225 21.500 M33.392 21.667 C 33.392 22.446,33.420 22.765,33.455 22.375 C 33.490 21.985,33.490 21.348,33.455 20.958 C 33.420 20.569,33.392 20.887,33.392 21.667 M155.209 20.917 C 155.211 21.283,155.245 21.414,155.285 21.206 C 155.324 20.999,155.323 20.699,155.281 20.540 C 155.239 20.380,155.207 20.550,155.209 20.917 M212.611 20.444 C 212.550 20.506,212.500 22.006,212.500 23.778 L 212.500 27.000 219.208 26.960 L 225.917 26.921 219.292 26.875 L 212.667 26.830 212.667 23.668 L 212.667 20.506 216.625 20.458 L 220.583 20.410 216.653 20.372 C 214.491 20.351,212.672 20.383,212.611 20.444 M296.908 26.000 C 296.908 29.162,296.931 30.456,296.958 28.875 C 296.985 27.294,296.985 24.706,296.958 23.125 C 296.931 21.544,296.908 22.837,296.908 26.000 M80.057 21.750 C 80.058 22.483,80.087 22.763,80.122 22.371 C 80.157 21.979,80.157 21.379,80.121 21.037 C 80.085 20.696,80.057 21.017,80.057 21.750 M258.724 21.750 C 258.724 22.483,258.754 22.763,258.789 22.371 C 258.824 21.979,258.824 21.379,258.788 21.037 C 258.752 20.696,258.723 21.017,258.724 21.750 M310.385 21.417 C 310.386 21.967,310.417 22.172,310.454 21.872 C 310.491 21.572,310.490 21.122,310.452 20.872 C 310.414 20.622,310.384 20.867,310.385 21.417 M355.224 21.750 C 355.224 22.483,355.254 22.763,355.289 22.371 C 355.324 21.979,355.324 21.379,355.288 21.037 C 355.252 20.696,355.223 21.017,355.224 21.750 M377.750 21.333 C 378.108 21.700,378.438 22.000,378.484 22.000 C 378.530 22.000,378.275 21.700,377.917 21.333 C 377.559 20.967,377.228 20.667,377.182 20.667 C 377.137 20.667,377.392 20.967,377.750 21.333 M74.888 21.917 C 74.889 22.558,74.919 22.800,74.955 22.455 C 74.991 22.109,74.990 21.584,74.954 21.288 C 74.917 20.992,74.887 21.275,74.888 21.917 M142.048 21.583 C 142.049 22.042,142.081 22.209,142.120 21.956 C 142.158 21.703,142.157 21.328,142.117 21.123 C 142.078 20.918,142.046 21.125,142.048 21.583 M237.552 21.750 C 237.553 22.300,237.584 22.505,237.621 22.205 C 237.658 21.906,237.657 21.456,237.619 21.205 C 237.581 20.955,237.551 21.200,237.552 21.750 M46.542 21.583 C 46.544 21.950,46.578 22.080,46.618 21.873 C 46.658 21.666,46.656 21.366,46.615 21.206 C 46.573 21.047,46.540 21.217,46.542 21.583 M160.381 21.750 C 160.382 22.208,160.415 22.376,160.453 22.123 C 160.491 21.869,160.490 21.494,160.451 21.289 C 160.411 21.084,160.380 21.292,160.381 21.750 M255.883 22.000 C 255.883 22.504,255.915 22.710,255.953 22.458 C 255.991 22.206,255.991 21.794,255.953 21.542 C 255.915 21.290,255.883 21.496,255.883 22.000 M155.209 22.417 C 155.211 22.783,155.245 22.914,155.285 22.706 C 155.324 22.499,155.323 22.199,155.281 22.040 C 155.239 21.880,155.207 22.050,155.209 22.417 M88.383 22.833 C 88.383 23.337,88.415 23.544,88.453 23.292 C 88.491 23.040,88.491 22.627,88.453 22.375 C 88.415 22.123,88.383 22.329,88.383 22.833 M318.381 22.750 C 318.382 23.208,318.415 23.376,318.453 23.123 C 318.491 22.869,318.490 22.494,318.451 22.289 C 318.411 22.084,318.380 22.292,318.381 22.750 M305.375 23.417 C 305.377 23.783,305.411 23.914,305.451 23.706 C 305.491 23.499,305.490 23.199,305.448 23.040 C 305.406 22.880,305.374 23.050,305.375 23.417 M246.114 23.291 C 247.872 23.318,250.797 23.318,252.614 23.291 C 254.430 23.265,252.992 23.242,249.417 23.242 C 245.842 23.242,244.355 23.264,246.114 23.291 M393.553 25.500 C 393.553 26.096,393.584 26.340,393.621 26.042 C 393.658 25.744,393.658 25.256,393.621 24.958 C 393.584 24.660,393.553 24.904,393.553 25.500 M81.500 26.583 C 81.811 26.904,82.103 27.167,82.149 27.167 C 82.195 27.167,81.978 26.904,81.667 26.583 C 81.356 26.262,81.064 26.000,81.018 26.000 C 80.972 26.000,81.189 26.262,81.500 26.583 M86.750 26.778 C 86.383 27.107,86.233 27.298,86.417 27.203 C 86.726 27.043,87.646 26.158,87.487 26.174 C 87.448 26.177,87.117 26.450,86.750 26.778 M264.833 26.219 C 264.833 26.248,265.077 26.491,265.375 26.760 L 265.917 27.250 265.427 26.708 C 264.971 26.203,264.833 26.090,264.833 26.219 M361.667 26.557 C 361.896 26.817,362.233 27.108,362.417 27.202 C 362.768 27.383,362.757 27.372,361.834 26.582 L 361.251 26.083 361.667 26.557 M153.573 26.875 L 153.083 27.417 153.625 26.927 C 153.923 26.658,154.167 26.414,154.167 26.385 C 154.167 26.257,154.029 26.370,153.573 26.875 M288.730 29.750 C 288.731 30.850,288.758 31.278,288.790 30.702 C 288.823 30.125,288.823 29.225,288.790 28.702 C 288.757 28.178,288.730 28.650,288.730 29.750 M384.711 28.120 C 384.964 28.158,385.339 28.157,385.544 28.117 C 385.749 28.078,385.542 28.046,385.083 28.048 C 384.625 28.049,384.457 28.081,384.711 28.120 M49.666 28.708 C 49.421 29.044,49.381 29.160,49.561 29.014 C 49.834 28.792,50.247 28.167,50.121 28.167 C 50.089 28.167,49.884 28.410,49.666 28.708 M253.333 29.583 C 252.928 29.996,252.635 30.333,252.681 30.333 C 252.726 30.333,253.095 29.996,253.500 29.583 C 253.905 29.171,254.199 28.833,254.153 28.833 C 254.107 28.833,253.738 29.171,253.333 29.583 M35.833 29.583 C 36.144 29.904,36.436 30.167,36.482 30.167 C 36.528 30.167,36.311 29.904,36.000 29.583 C 35.689 29.262,35.397 29.000,35.351 29.000 C 35.305 29.000,35.522 29.262,35.833 29.583 M91.406 29.542 L 90.917 30.083 91.458 29.594 C 91.756 29.325,92.000 29.081,92.000 29.052 C 92.000 28.923,91.862 29.037,91.406 29.542 M157.500 29.750 C 157.095 30.162,156.801 30.500,156.847 30.500 C 156.893 30.500,157.262 30.162,157.667 29.750 C 158.072 29.337,158.365 29.000,158.319 29.000 C 158.274 29.000,157.905 29.337,157.500 29.750 M240.326 29.708 C 241.017 30.444,241.167 30.577,241.167 30.451 C 241.167 30.425,240.810 30.068,240.375 29.660 L 239.583 28.917 240.326 29.708 M371.073 29.542 L 370.583 30.083 371.125 29.594 C 371.630 29.138,371.743 29.000,371.615 29.000 C 371.586 29.000,371.342 29.244,371.073 29.542 M77.500 29.917 C 77.811 30.238,78.103 30.500,78.149 30.500 C 78.195 30.500,77.978 30.238,77.667 29.917 C 77.356 29.596,77.064 29.333,77.018 29.333 C 76.972 29.333,77.189 29.596,77.500 29.917 M68.219 31.375 C 68.394 31.535,68.660 31.662,68.810 31.656 C 68.983 31.649,68.933 31.586,68.676 31.483 C 68.451 31.393,68.185 31.267,68.084 31.202 C 67.984 31.137,68.044 31.215,68.219 31.375 M285.632 31.790 C 286.208 31.823,287.108 31.823,287.632 31.790 C 288.155 31.757,287.683 31.730,286.583 31.730 C 285.483 31.731,285.055 31.758,285.632 31.790 M41.875 32.121 C 42.219 32.157,42.781 32.157,43.125 32.121 C 43.469 32.085,43.188 32.056,42.500 32.056 C 41.813 32.056,41.531 32.085,41.875 32.121 M83.208 32.123 C 83.644 32.157,84.356 32.157,84.792 32.123 C 85.227 32.088,84.871 32.060,84.000 32.060 C 83.129 32.060,82.773 32.088,83.208 32.123 M150.621 32.120 C 150.917 32.157,151.442 32.158,151.788 32.122 C 152.134 32.086,151.892 32.055,151.250 32.055 C 150.608 32.054,150.325 32.083,150.621 32.120 M245.875 32.123 C 246.310 32.157,247.023 32.157,247.458 32.123 C 247.894 32.088,247.537 32.060,246.667 32.060 C 245.796 32.060,245.440 32.088,245.875 32.123 M267.042 32.123 C 267.477 32.157,268.190 32.157,268.625 32.123 C 269.060 32.088,268.704 32.060,267.833 32.060 C 266.962 32.060,266.606 32.088,267.042 32.123 M313.875 32.121 C 314.219 32.157,314.781 32.157,315.125 32.121 C 315.469 32.085,315.188 32.056,314.500 32.056 C 313.813 32.056,313.531 32.085,313.875 32.121 M363.542 32.123 C 363.977 32.157,364.690 32.157,365.125 32.123 C 365.560 32.088,365.204 32.060,364.333 32.060 C 363.462 32.060,363.106 32.088,363.542 32.123 M383.542 32.123 C 384.069 32.156,384.931 32.156,385.458 32.123 C 385.985 32.090,385.554 32.063,384.500 32.063 C 383.446 32.063,383.015 32.090,383.542 32.123 " stroke="none" fill="#a5abb3" fill-rule="evenodd"></path><path id="path3" d="M102.954 11.761 C 98.911 12.741,96.755 15.838,96.544 20.972 C 96.251 28.068,99.422 31.987,105.500 32.041 C 111.430 32.093,114.583 28.521,114.583 21.750 C 114.583 14.214,109.797 10.103,102.954 11.761 M192.304 11.741 C 188.194 12.642,185.804 16.288,185.798 21.667 C 185.790 28.356,189.032 32.046,194.917 32.046 C 200.877 32.046,204.218 27.994,203.957 21.083 C 203.691 14.059,198.977 10.279,192.304 11.741 M107.198 16.266 C 110.674 18.064,110.296 26.560,106.691 27.640 C 103.930 28.467,102.152 26.803,101.646 22.917 C 101.006 18.000,103.884 14.553,107.198 16.266 M196.498 16.252 C 198.558 17.332,199.453 20.934,198.570 24.595 C 197.743 28.026,193.451 28.972,191.818 26.083 C 190.872 24.406,190.594 20.891,191.239 18.750 C 191.933 16.449,194.526 15.218,196.498 16.252 " stroke="none" fill="#7a9ffc" fill-rule="evenodd"></path></g></svg>