<svg id="svg" version="1.1" xmlns="http://www.w3.org/2000/svg" xmlns:xlink="http://www.w3.org/1999/xlink" width="400" height="400" viewBox="0, 0, 400,400"><g id="svgg"><path id="path0" d="M14.778 135.529 C 13.343 136.042,12.458 136.821,11.793 138.156 L 11.165 139.416 11.165 161.455 L 11.165 183.495 15.775 183.495 L 20.385 183.495 20.448 164.138 L 20.510 144.782 25.465 164.143 L 30.420 183.505 35.528 183.439 L 40.635 183.374 45.500 164.078 L 50.364 144.782 50.426 164.138 L 50.488 183.495 55.099 183.495 L 59.709 183.495 59.709 159.345 L 59.709 135.194 52.358 135.194 L 45.006 135.194 40.294 153.398 C 37.703 163.410,35.519 171.602,35.441 171.602 C 35.363 171.602,33.178 163.410,30.586 153.398 L 25.872 135.194 20.764 135.205 C 17.228 135.212,15.385 135.312,14.778 135.529 M169.903 143.053 L 169.903 150.961 168.122 149.152 C 161.864 142.790,151.394 144.746,147.014 153.094 C 142.656 161.399,143.757 174.476,149.286 180.092 C 156.109 187.022,173.648 184.619,177.601 176.214 C 179.247 172.713,179.210 173.158,179.309 155.371 L 179.397 139.262 178.774 137.988 C 177.693 135.778,176.763 135.333,173.019 135.230 L 169.903 135.145 169.903 143.053 M229.098 135.529 C 227.664 136.042,226.779 136.821,226.113 138.156 L 225.485 139.416 225.485 161.455 L 225.485 183.495 230.340 183.495 L 235.194 183.495 235.194 166.942 C 235.194 156.398,235.279 150.473,235.427 150.621 C 235.554 150.749,240.021 158.170,245.353 167.113 L 255.047 183.374 260.169 183.439 L 265.291 183.505 265.291 159.349 L 265.291 135.194 260.437 135.194 L 255.583 135.194 255.583 151.748 C 255.583 161.548,255.494 168.207,255.364 168.070 C 255.244 167.944,250.802 160.495,245.492 151.517 L 235.838 135.194 232.907 135.205 C 231.153 135.211,229.623 135.341,229.098 135.529 M78.651 145.745 C 70.919 147.207,66.440 153.531,66.098 163.471 C 65.642 176.713,71.603 183.966,83.010 184.046 C 94.280 184.124,100.781 176.281,100.163 163.350 C 99.542 150.374,91.027 143.405,78.651 145.745 M119.624 145.752 C 114.035 146.812,109.883 149.389,108.244 152.813 C 106.745 155.945,106.725 156.161,106.618 170.449 L 106.520 183.495 111.391 183.495 L 116.262 183.495 116.262 171.392 C 116.262 158.449,116.351 157.243,117.417 155.729 C 119.465 152.819,124.542 152.320,127.379 154.748 C 129.327 156.416,129.233 155.753,129.369 168.689 C 129.503 181.396,129.454 181.008,131.067 182.365 C 132.126 183.256,133.236 183.492,136.362 183.494 L 139.108 183.495 139.020 170.449 C 138.922 155.900,138.879 155.492,137.100 152.154 C 134.625 147.510,126.343 144.476,119.624 145.752 M283.748 145.745 C 276.016 147.207,271.537 153.531,271.195 163.471 C 270.739 176.713,276.700 183.966,288.107 184.046 C 299.377 184.124,305.878 176.281,305.260 163.350 C 304.639 150.374,296.124 143.405,283.748 145.745 M312.755 149.211 C 313.355 150.913,316.285 159.296,319.267 167.840 L 324.688 183.374 329.662 183.439 L 334.635 183.505 339.880 168.633 C 342.765 160.454,345.731 152.033,346.471 149.920 L 347.816 146.078 343.386 146.158 C 336.566 146.281,337.315 145.244,332.874 160.697 C 331.055 167.028,329.536 172.240,329.500 172.278 C 329.463 172.316,327.760 166.445,325.715 159.232 L 321.997 146.117 316.831 146.117 L 311.665 146.117 312.755 149.211 M85.829 154.032 C 92.829 156.957,92.258 173.959,85.092 175.965 C 79.118 177.638,75.491 173.146,75.487 164.068 C 75.484 157.695,77.389 154.694,82.160 153.556 C 82.879 153.385,84.910 153.648,85.829 154.032 M290.926 154.032 C 297.926 156.957,297.355 173.959,290.189 175.965 C 284.216 177.638,280.588 173.146,280.584 164.068 C 280.581 157.695,282.486 154.694,287.257 153.556 C 287.976 153.385,290.007 153.648,290.926 154.032 M163.956 154.145 C 168.233 155.286,170.476 160.316,169.721 167.072 C 169.038 173.179,166.657 175.850,161.893 175.850 C 156.438 175.850,154.005 172.405,154.005 164.684 C 154.005 156.718,157.948 152.542,163.956 154.145 M24.393 197.695 C 23.165 198.129,21.720 199.657,21.380 200.879 C 21.203 201.519,21.119 208.835,21.118 223.726 L 21.117 245.631 38.592 245.631 L 56.068 245.631 56.068 241.141 L 56.068 236.650 43.447 236.650 L 30.825 236.650 30.825 230.461 L 30.825 224.272 38.046 224.270 C 48.497 224.269,49.752 223.586,49.756 217.900 L 49.757 216.019 40.291 216.019 L 30.825 216.019 30.825 210.801 L 30.825 205.583 43.447 205.583 L 56.068 205.583 56.068 201.456 L 56.068 197.330 40.716 197.341 C 28.120 197.349,25.190 197.413,24.393 197.695 M63.107 221.481 L 63.107 245.631 67.961 245.631 L 72.816 245.631 72.816 223.317 C 72.816 199.743,72.838 200.213,71.647 198.938 C 70.442 197.647,69.379 197.341,66.080 197.335 L 63.107 197.330 63.107 221.481 M159.223 218.888 C 159.223 247.366,158.464 245.320,169.114 245.565 L 174.515 245.689 174.515 242.019 L 174.515 238.350 172.561 238.350 C 168.560 238.350,168.689 238.771,168.689 225.692 L 168.689 215.291 169.478 215.290 C 172.537 215.285,174.498 213.228,174.509 210.012 L 174.515 208.495 171.618 208.495 L 168.721 208.495 168.645 204.391 L 168.568 200.286 167.826 199.354 C 166.532 197.730,165.397 197.330,162.084 197.330 L 159.223 197.330 159.223 218.888 M286.165 201.190 L 286.165 205.097 291.044 205.097 L 295.922 205.097 295.837 202.973 C 295.665 198.669,294.320 197.494,289.421 197.367 L 286.165 197.282 286.165 201.190 M92.067 207.752 C 86.749 208.601,82.677 211.551,80.444 216.170 C 77.617 222.015,77.694 231.906,80.613 237.843 C 86.756 250.342,107.078 248.850,111.648 235.564 L 112.110 234.223 108.057 234.229 C 103.479 234.235,102.474 234.493,101.454 235.925 C 100.058 237.886,94.784 238.775,92.354 237.460 C 90.130 236.256,88.727 234.042,88.384 231.195 L 88.194 229.612 100.443 229.612 L 112.693 229.612 112.554 226.153 C 112.028 212.981,104.070 205.834,92.067 207.752 M131.837 207.773 C 126.695 208.522,122.466 211.586,120.249 216.170 C 117.423 222.015,117.500 231.906,120.418 237.843 C 126.562 250.342,146.883 248.850,151.454 235.564 L 151.916 234.223 147.940 234.223 C 143.429 234.223,143.019 234.324,141.505 235.803 C 137.705 239.516,131.254 238.662,128.964 234.143 C 127.228 230.716,127.214 223.019,128.939 219.539 C 131.297 214.782,138.768 214.439,141.442 218.966 L 141.852 219.660 146.654 219.660 C 152.139 219.660,151.807 219.850,150.762 217.315 C 147.770 210.060,140.681 206.486,131.837 207.773 M218.568 207.890 C 210.891 209.468,206.472 215.769,206.143 225.607 C 205.699 238.855,211.677 246.127,223.058 246.186 C 234.342 246.245,240.829 238.416,240.211 225.485 C 239.591 212.507,230.815 205.372,218.568 207.890 M259.429 207.887 C 253.841 208.948,249.689 211.524,248.050 214.949 C 246.551 218.081,246.531 218.297,246.424 232.585 L 246.326 245.631 251.197 245.631 L 256.068 245.631 256.068 233.528 C 256.068 220.585,256.157 219.379,257.223 217.865 C 259.271 214.955,264.348 214.455,267.185 216.884 C 269.133 218.552,269.039 217.889,269.175 230.825 C 269.309 243.532,269.260 243.144,270.873 244.501 C 271.931 245.392,273.041 245.628,276.168 245.630 L 278.914 245.631 278.826 232.585 C 278.728 218.036,278.685 217.628,276.906 214.290 C 274.431 209.646,266.149 206.612,259.429 207.887 M313.876 207.773 C 308.734 208.522,304.505 211.586,302.288 216.170 C 299.462 222.015,299.539 231.906,302.457 237.843 C 308.600 250.342,328.922 248.850,333.493 235.564 L 333.954 234.223 329.978 234.223 C 325.468 234.223,325.058 234.324,323.544 235.803 C 319.743 239.516,313.293 238.662,311.003 234.143 C 309.266 230.716,309.253 223.019,310.978 219.539 C 313.336 214.782,320.807 214.439,323.481 218.966 L 323.891 219.660 328.693 219.660 C 334.178 219.660,333.846 219.850,332.801 217.315 C 329.809 210.060,322.720 206.486,313.876 207.773 M351.578 207.778 C 344.063 208.961,339.541 213.982,340.145 220.475 C 340.681 226.243,345.203 229.180,357.216 231.561 C 364.768 233.057,363.983 238.835,356.228 238.835 C 352.118 238.835,349.341 237.109,348.888 234.273 L 348.724 233.252 344.022 233.252 L 339.320 233.252 339.320 234.454 C 339.320 241.461,344.477 245.751,353.519 246.268 C 366.082 246.986,373.699 241.147,372.131 232.000 C 371.249 226.856,368.128 224.868,356.588 222.098 C 351.408 220.854,349.757 219.916,349.757 218.215 C 349.757 214.171,357.376 213.770,361.044 217.621 C 363.123 219.804,363.414 219.903,367.737 219.903 L 371.035 219.903 370.855 218.575 C 369.795 210.763,361.639 206.194,351.578 207.778 M196.167 208.512 C 188.527 209.505,183.484 213.261,181.288 219.593 C 180.289 222.476,180.100 225.016,180.099 235.619 L 180.097 245.631 184.936 245.631 L 189.774 245.631 189.860 234.769 C 189.938 224.976,189.990 223.784,190.393 222.651 C 191.502 219.528,193.500 218.387,198.109 218.243 L 201.214 218.146 201.214 213.199 L 201.214 208.252 199.454 208.283 C 198.486 208.300,197.007 208.403,196.167 208.512 M286.165 226.942 L 286.165 245.631 291.019 245.631 L 295.874 245.631 295.868 228.944 C 295.862 210.251,295.945 211.160,294.098 209.538 C 292.923 208.506,291.883 208.255,288.774 208.254 L 286.165 208.252 286.165 226.942 M225.878 216.168 C 232.877 219.093,232.306 236.095,225.141 238.101 C 219.167 239.774,215.540 235.281,215.535 226.204 C 215.532 219.831,217.437 216.830,222.209 215.692 C 222.927 215.521,224.959 215.784,225.878 216.168 M97.954 216.134 C 100.553 216.909,101.841 218.710,102.517 222.512 L 102.658 223.301 95.419 223.301 L 88.180 223.301 88.397 221.905 C 89.120 217.247,93.274 214.738,97.954 216.134 " stroke="none" fill="#3d3534" fill-rule="evenodd"></path><path id="path1" d="M0.000 200.000 L 0.000 400.000 200.000 400.000 L 400.000 400.000 400.000 200.000 L 400.000 0.000 200.000 0.000 L 0.000 0.000 0.000 200.000 M26.164 135.983 C 26.283 136.417,28.391 144.553,30.848 154.063 C 33.305 163.573,35.370 171.355,35.437 171.355 C 35.504 171.356,37.569 163.575,40.027 154.064 C 42.485 144.553,44.592 136.417,44.711 135.983 L 44.926 135.194 52.317 135.194 L 59.709 135.194 59.709 159.345 L 59.709 183.495 55.097 183.495 L 50.485 183.495 50.485 164.401 C 50.485 153.900,50.440 145.353,50.385 145.409 C 50.329 145.464,48.127 154.056,45.491 164.502 L 40.698 183.495 35.536 183.495 L 30.374 183.495 30.012 182.221 C 29.813 181.520,27.615 172.976,25.127 163.235 C 22.639 153.493,20.555 145.474,20.496 145.415 C 20.437 145.356,20.388 153.900,20.388 164.401 L 20.388 183.495 15.777 183.495 L 11.165 183.495 11.170 161.347 C 11.176 136.586,11.073 138.075,12.890 136.543 C 14.392 135.278,14.758 135.214,20.559 135.204 L 25.948 135.194 26.164 135.983 M176.529 135.587 C 179.490 137.083,179.369 136.270,179.369 154.612 C 179.369 172.384,179.346 172.669,177.664 176.125 C 174.106 183.435,161.103 186.607,152.206 182.335 C 142.308 177.582,141.392 155.734,150.778 148.280 C 156.334 143.868,165.004 144.564,168.811 149.729 C 169.211 150.272,169.621 150.719,169.721 150.722 C 169.821 150.726,169.903 147.233,169.903 142.961 L 169.903 135.194 172.828 135.194 C 175.039 135.194,175.942 135.290,176.529 135.587 M245.615 151.539 L 255.218 167.762 255.281 151.478 L 255.343 135.194 260.317 135.194 L 265.291 135.194 265.291 159.345 L 265.291 183.495 260.133 183.487 L 254.976 183.480 245.267 167.165 L 235.558 150.850 235.496 167.173 L 235.433 183.495 230.459 183.495 L 225.485 183.495 225.491 161.347 C 225.497 136.586,225.393 138.075,227.211 136.543 C 228.647 135.333,229.213 135.202,232.751 135.261 L 236.011 135.316 245.615 151.539 M88.263 145.885 C 95.956 147.841,100.243 154.613,100.243 164.811 C 100.243 176.964,93.892 184.202,83.213 184.220 C 74.063 184.236,68.014 179.246,66.407 170.357 C 63.325 153.313,73.346 142.093,88.263 145.885 M293.360 145.885 C 301.054 147.841,305.340 154.613,305.340 164.811 C 305.340 176.964,298.989 184.202,288.310 184.220 C 279.160 184.236,273.111 179.246,271.504 170.357 C 268.422 153.313,278.443 142.093,293.360 145.885 M126.891 145.772 C 132.267 146.874,136.060 149.449,137.670 153.088 C 138.932 155.941,138.920 155.789,139.015 170.085 L 139.104 183.495 136.012 183.495 C 132.346 183.495,131.219 183.109,130.142 181.482 L 129.490 180.498 129.369 168.950 L 129.248 157.403 128.638 156.311 C 126.197 151.940,118.506 152.398,116.878 157.012 C 116.560 157.913,116.505 159.961,116.505 170.783 L 116.505 183.495 111.516 183.495 L 106.527 183.495 106.617 170.206 C 106.715 155.714,106.703 155.840,108.199 152.670 C 110.610 147.563,119.544 144.266,126.891 145.772 M206.627 145.776 C 214.706 147.569,219.022 154.195,219.022 164.806 C 219.022 178.050,211.466 185.579,199.742 184.018 C 190.474 182.784,185.810 177.434,184.981 167.086 C 183.763 151.890,193.037 142.760,206.627 145.776 M375.461 145.880 C 383.279 147.755,387.468 154.358,387.468 164.806 C 387.468 177.258,381.290 184.244,370.296 184.220 C 360.388 184.199,354.300 178.039,353.432 167.157 C 352.201 151.712,361.663 142.573,375.461 145.880 M322.429 147.331 C 322.628 147.999,324.294 153.855,326.131 160.343 C 327.969 166.832,329.502 172.047,329.539 171.932 C 329.576 171.817,331.067 166.640,332.852 160.428 C 336.375 148.174,336.466 147.924,337.783 146.918 L 338.674 146.238 343.245 146.162 C 345.759 146.121,347.814 146.176,347.811 146.284 C 347.809 146.392,344.876 154.782,341.294 164.927 L 334.781 183.374 329.707 183.439 L 324.633 183.504 318.223 165.114 C 314.697 154.999,311.764 146.587,311.705 146.420 C 311.622 146.183,312.750 146.117,316.834 146.117 L 322.069 146.117 322.429 147.331 M80.663 154.090 C 73.848 156.445,73.516 172.475,80.218 175.527 C 85.415 177.893,89.757 174.210,90.518 166.790 C 91.459 157.621,87.015 151.895,80.663 154.090 M199.723 153.978 C 195.111 155.625,193.076 162.794,195.106 170.239 C 197.387 178.603,207.131 178.164,209.090 169.609 C 211.397 159.532,206.597 151.522,199.723 153.978 M285.760 154.090 C 278.945 156.445,278.613 172.475,285.316 175.527 C 290.512 177.893,294.854 174.210,295.615 166.790 C 296.556 157.621,292.112 151.895,285.760 154.090 M368.169 153.978 C 363.558 155.625,361.523 162.794,363.553 170.239 C 365.833 178.601,375.600 178.161,377.532 169.609 C 379.819 159.483,375.049 151.520,368.169 153.978 M160.073 154.096 C 155.070 155.400,152.455 162.727,154.515 169.670 C 157.096 178.368,167.437 178.044,169.311 169.207 C 171.291 159.864,166.707 152.366,160.073 154.096 M56.311 201.456 L 56.311 205.583 43.689 205.583 L 31.068 205.583 31.068 210.801 L 31.068 216.019 40.435 216.019 L 49.801 216.019 49.719 218.526 C 49.625 221.378,49.224 222.264,47.473 223.487 L 46.523 224.150 38.796 224.221 L 31.068 224.291 31.068 230.471 L 31.068 236.650 43.689 236.650 L 56.311 236.650 56.311 241.141 L 56.311 245.631 38.710 245.631 L 21.109 245.631 21.173 223.079 L 21.238 200.527 21.966 199.493 C 22.367 198.925,23.176 198.205,23.764 197.895 L 24.834 197.330 40.572 197.330 L 56.311 197.330 56.311 201.456 M70.827 198.119 C 72.959 199.532,72.816 197.720,72.816 223.170 L 72.816 245.631 67.840 245.631 L 62.864 245.631 62.864 221.463 L 62.864 197.294 66.342 197.373 C 69.666 197.448,69.864 197.481,70.827 198.119 M166.567 198.046 C 168.475 199.255,168.788 200.150,168.889 204.672 L 168.975 208.495 171.745 208.495 L 174.515 208.495 174.539 209.405 C 174.639 213.096,173.245 214.994,170.252 215.242 L 168.932 215.351 168.932 226.109 L 168.932 236.866 169.504 237.531 C 170.034 238.148,170.241 238.205,172.296 238.303 L 174.515 238.409 174.515 242.001 L 174.515 245.592 172.907 245.765 C 167.555 246.338,161.967 245.347,160.498 243.566 C 159.069 241.832,159.126 242.777,159.041 219.114 L 158.963 197.330 162.201 197.330 C 165.369 197.330,165.463 197.346,166.567 198.046 M293.034 197.723 C 295.128 198.781,295.874 200.173,295.874 203.024 L 295.874 205.097 290.898 205.097 L 285.922 205.097 285.922 201.214 L 285.922 197.330 289.090 197.330 C 291.525 197.330,292.437 197.421,293.034 197.723 M228.312 208.021 C 236.005 209.977,240.291 216.749,240.291 226.947 C 240.291 239.100,233.941 246.338,223.262 246.356 C 214.112 246.372,208.063 241.382,206.455 232.493 C 203.373 215.449,213.394 204.229,228.312 208.021 M99.707 207.903 C 107.787 209.539,112.243 215.739,112.559 225.789 L 112.679 229.612 100.514 229.612 L 88.350 229.612 88.350 230.206 C 88.350 237.278,96.420 240.724,101.456 235.803 C 102.978 234.317,103.369 234.223,108.042 234.223 L 112.169 234.223 112.000 234.769 C 109.748 242.060,104.421 245.945,96.206 246.288 C 85.843 246.720,79.571 240.963,78.381 229.928 C 76.732 214.629,85.942 205.117,99.707 207.903 M139.513 207.909 C 145.369 209.115,150.017 213.429,151.581 219.114 L 151.732 219.660 146.800 219.660 L 141.868 219.660 141.019 218.507 C 138.513 215.104,132.230 214.963,129.845 218.256 C 127.333 221.723,126.943 229.955,129.091 234.156 C 131.372 238.618,137.409 239.428,141.295 235.794 C 142.905 234.288,143.175 234.223,147.848 234.223 L 151.974 234.223 151.806 234.769 C 149.554 242.060,144.226 245.945,136.011 246.288 C 125.649 246.720,119.377 240.963,118.187 229.928 C 116.538 214.631,125.784 205.084,139.513 207.909 M266.697 207.908 C 272.073 209.010,275.866 211.585,277.476 215.224 C 278.738 218.076,278.726 217.925,278.821 232.221 L 278.910 245.631 275.818 245.631 C 272.152 245.631,271.025 245.245,269.948 243.618 L 269.296 242.634 269.175 231.086 L 269.053 219.539 268.443 218.447 C 266.002 214.076,258.312 214.534,256.684 219.148 C 256.366 220.049,256.311 222.097,256.311 232.919 L 256.311 245.631 251.322 245.631 L 246.333 245.631 246.423 232.342 C 246.521 217.850,246.509 217.976,248.005 214.806 C 250.415 209.699,259.350 206.402,266.697 207.908 M321.551 207.909 C 327.408 209.115,332.056 213.429,333.620 219.114 L 333.771 219.660 328.839 219.660 L 323.907 219.660 323.058 218.507 C 320.552 215.104,314.269 214.963,311.883 218.256 C 308.782 222.538,309.052 232.217,312.378 236.006 C 314.818 238.785,320.355 238.682,323.301 235.803 C 324.822 234.317,325.213 234.223,329.887 234.223 L 334.013 234.223 333.845 234.769 C 331.609 242.008,326.275 245.932,318.186 246.287 C 307.735 246.745,301.419 240.993,300.226 229.928 C 298.577 214.631,307.823 205.084,321.551 207.909 M359.361 207.779 C 366.195 208.990,370.172 212.705,370.989 218.642 L 371.162 219.903 367.489 219.903 C 363.142 219.903,362.669 219.738,360.820 217.588 C 357.967 214.269,351.131 214.166,350.004 217.425 C 349.230 219.665,352.696 221.600,359.449 222.698 C 367.488 224.005,372.055 227.765,372.286 233.265 C 372.646 241.855,367.114 246.177,355.704 246.220 C 344.584 246.261,339.156 242.205,339.082 233.799 L 339.078 233.252 343.892 233.252 L 348.707 233.252 349.102 234.672 C 350.257 238.829,358.661 240.383,361.639 236.990 C 363.717 234.624,361.623 232.541,356.030 231.411 C 344.919 229.167,340.378 225.954,340.095 220.136 C 339.666 211.327,348.262 205.814,359.361 207.779 M201.214 213.228 L 201.214 218.204 199.195 218.204 C 194.067 218.204,191.524 219.545,190.526 222.777 C 190.082 224.215,190.049 225.067,190.049 234.977 L 190.049 245.631 185.058 245.631 L 180.067 245.631 180.161 234.163 C 180.265 221.503,180.286 221.307,181.883 217.881 C 184.754 211.721,190.741 208.355,198.968 208.274 L 201.214 208.252 201.214 213.228 M293.083 208.711 C 295.968 210.043,295.874 209.361,295.874 228.876 L 295.874 245.631 290.898 245.631 L 285.922 245.631 285.922 226.942 L 285.922 208.252 289.017 208.258 C 291.505 208.262,292.302 208.351,293.083 208.711 M93.399 216.102 C 90.933 216.796,89.135 218.691,88.607 221.152 C 88.099 223.523,87.395 223.301,95.420 223.301 L 102.490 223.301 102.324 222.027 C 101.730 217.475,97.798 214.865,93.399 216.102 M220.712 216.226 C 216.283 217.756,214.420 224.120,216.154 231.796 C 218.209 240.895,228.295 240.526,230.245 231.281 C 232.346 221.323,227.609 213.842,220.712 216.226 " stroke="none" fill="#fbfbfb" fill-rule="evenodd"></path><path id="path2" d="M255.282 151.601 C 255.247 160.625,255.300 168.058,255.400 168.120 C 255.501 168.182,255.583 160.799,255.583 151.713 C 255.583 142.628,255.529 135.194,255.465 135.194 C 255.400 135.194,255.318 142.577,255.282 151.601 M82.588 145.320 C 82.957 145.376,83.503 145.374,83.802 145.316 C 84.100 145.259,83.799 145.213,83.131 145.215 C 82.464 145.217,82.219 145.264,82.588 145.320 M287.685 145.320 C 288.054 145.376,288.600 145.374,288.899 145.316 C 289.197 145.259,288.896 145.213,288.228 145.215 C 287.561 145.217,287.316 145.264,287.685 145.320 M196.913 145.855 C 188.608 147.895,184.088 155.940,184.981 167.086 C 185.676 175.767,189.094 180.941,195.540 183.071 C 202.745 185.453,210.613 183.772,214.782 178.962 C 219.680 173.310,220.638 161.757,216.860 153.907 C 213.570 147.071,205.394 143.770,196.913 145.855 M365.655 145.788 C 355.964 147.845,350.979 159.347,354.227 172.152 C 356.435 180.857,364.275 185.532,373.861 183.861 C 382.997 182.267,387.468 176.006,387.468 164.806 C 387.468 150.580,378.778 143.004,365.655 145.788 M149.625 149.333 L 148.665 150.364 149.697 149.405 C 150.656 148.512,150.840 148.301,150.656 148.301 C 150.616 148.301,150.152 148.765,149.625 149.333 M94.417 149.105 C 94.417 149.147,94.772 149.502,95.206 149.894 L 95.995 150.607 95.282 149.818 C 94.618 149.083,94.417 148.918,94.417 149.105 M299.515 149.105 C 299.515 149.147,299.870 149.502,300.303 149.894 L 301.092 150.607 300.379 149.818 C 299.715 149.083,299.515 148.918,299.515 149.105 M235.253 167.051 L 235.312 183.617 235.376 167.280 C 235.427 154.339,235.503 150.982,235.742 151.126 C 235.944 151.247,235.933 151.171,235.711 150.896 C 235.527 150.670,235.336 150.485,235.286 150.485 C 235.235 150.485,235.221 157.940,235.253 167.051 M205.068 154.279 C 208.952 156.214,210.663 162.738,209.090 169.609 C 207.742 175.495,202.488 177.954,197.851 174.871 C 194.056 172.347,193.167 160.550,196.447 156.249 C 198.339 153.770,202.252 152.875,205.068 154.279 M373.515 154.279 C 377.400 156.215,379.096 162.686,377.532 169.609 C 376.204 175.487,370.935 177.954,366.298 174.871 C 362.503 172.347,361.614 160.550,364.894 156.249 C 366.785 153.770,370.698 152.875,373.515 154.279 M87.621 155.461 C 88.074 155.928,88.499 156.311,88.566 156.311 C 88.633 156.311,88.317 155.928,87.864 155.461 C 87.411 154.994,86.986 154.612,86.919 154.612 C 86.853 154.612,87.168 154.994,87.621 155.461 M292.718 155.461 C 293.171 155.928,293.596 156.311,293.663 156.311 C 293.730 156.311,293.414 155.928,292.961 155.461 C 292.508 154.994,292.083 154.612,292.016 154.612 C 291.950 154.612,292.266 154.994,292.718 155.461 M116.375 171.117 C 116.375 177.992,116.406 180.804,116.444 177.367 C 116.482 173.929,116.482 168.304,116.444 164.867 C 116.406 161.429,116.375 164.242,116.375 171.117 M90.590 162.864 C 90.590 163.331,90.640 163.522,90.701 163.289 C 90.762 163.055,90.762 162.673,90.701 162.439 C 90.640 162.206,90.590 162.397,90.590 162.864 M295.687 162.864 C 295.687 163.331,295.737 163.522,295.798 163.289 C 295.859 163.055,295.859 162.673,295.798 162.439 C 295.737 162.206,295.687 162.397,295.687 162.864 M65.860 164.442 C 65.861 165.510,65.903 165.916,65.955 165.346 C 66.006 164.775,66.005 163.901,65.953 163.404 C 65.901 162.907,65.859 163.374,65.860 164.442 M169.746 164.684 C 169.746 165.886,169.787 166.408,169.838 165.845 C 169.888 165.281,169.889 164.298,169.839 163.660 C 169.789 163.022,169.747 163.483,169.746 164.684 M270.957 164.442 C 270.958 165.510,271.001 165.916,271.052 165.346 C 271.103 164.775,271.102 163.901,271.050 163.404 C 270.998 162.907,270.956 163.374,270.957 164.442 M144.260 165.049 C 144.260 166.183,144.301 166.647,144.352 166.080 C 144.404 165.513,144.404 164.584,144.352 164.017 C 144.301 163.450,144.260 163.914,144.260 165.049 M90.590 166.019 C 90.590 166.487,90.640 166.678,90.701 166.444 C 90.762 166.211,90.762 165.828,90.701 165.595 C 90.640 165.361,90.590 165.552,90.590 166.019 M295.687 166.019 C 295.687 166.487,295.737 166.678,295.798 166.444 C 295.859 166.211,295.859 165.828,295.798 165.595 C 295.737 165.361,295.687 165.552,295.687 166.019 M56.168 201.456 C 56.168 203.792,56.204 204.748,56.249 203.580 C 56.293 202.412,56.293 200.501,56.249 199.333 C 56.204 198.164,56.168 199.120,56.168 201.456 M62.981 221.481 C 62.981 234.830,63.010 240.327,63.046 233.696 C 63.082 227.064,63.082 216.142,63.046 209.424 C 63.010 202.706,62.981 208.131,62.981 221.481 M159.097 218.447 C 159.097 230.127,159.126 234.906,159.163 229.066 C 159.199 223.225,159.199 213.668,159.163 207.828 C 159.126 201.987,159.097 206.766,159.097 218.447 M286.021 201.214 C 286.021 203.416,286.058 204.317,286.103 203.216 C 286.148 202.115,286.148 200.313,286.103 199.211 C 286.058 198.110,286.021 199.011,286.021 201.214 M168.786 204.976 C 168.787 206.978,168.824 207.765,168.870 206.724 C 168.916 205.684,168.915 204.045,168.869 203.084 C 168.823 202.122,168.786 202.973,168.786 204.976 M30.929 210.801 C 30.929 213.738,30.964 214.906,31.007 213.397 C 31.049 211.888,31.049 209.485,31.006 208.057 C 30.963 206.629,30.928 207.864,30.929 210.801 M222.637 207.456 C 223.006 207.512,223.552 207.510,223.850 207.452 C 224.149 207.395,223.847 207.349,223.180 207.351 C 222.512 207.353,222.268 207.400,222.637 207.456 M286.038 226.942 C 286.038 237.288,286.068 241.520,286.104 236.347 C 286.141 231.174,286.141 222.709,286.104 217.536 C 286.068 212.363,286.038 216.596,286.038 226.942 M293.689 209.057 C 293.689 209.098,294.044 209.453,294.478 209.845 L 295.267 210.558 294.554 209.769 C 293.890 209.034,293.689 208.869,293.689 209.057 M147.330 212.015 C 147.783 212.482,148.208 212.864,148.275 212.864 C 148.342 212.864,148.026 212.482,147.573 212.015 C 147.120 211.547,146.695 211.165,146.628 211.165 C 146.561 211.165,146.877 211.547,147.330 212.015 M234.466 211.241 C 234.466 211.283,234.821 211.638,235.255 212.030 L 236.044 212.743 235.331 211.954 C 234.666 211.219,234.466 211.053,234.466 211.241 M329.369 212.015 C 329.822 212.482,330.247 212.864,330.314 212.864 C 330.380 212.864,330.065 212.482,329.612 212.015 C 329.159 211.547,328.734 211.165,328.667 211.165 C 328.600 211.165,328.916 211.547,329.369 212.015 M168.801 225.850 C 168.801 231.723,168.833 234.091,168.871 231.112 C 168.910 228.133,168.910 223.327,168.871 220.433 C 168.832 217.538,168.801 219.976,168.801 225.850 M359.709 216.338 C 359.709 216.380,360.064 216.735,360.498 217.127 L 361.286 217.840 360.574 217.051 C 359.909 216.316,359.709 216.151,359.709 216.338 M227.670 217.597 C 228.123 218.064,228.548 218.447,228.615 218.447 C 228.681 218.447,228.365 218.064,227.913 217.597 C 227.460 217.130,227.035 216.748,226.968 216.748 C 226.901 216.748,227.217 217.130,227.670 217.597 M256.181 233.252 C 256.181 240.127,256.212 242.940,256.250 239.502 C 256.288 236.065,256.288 230.440,256.250 227.002 C 256.212 223.565,256.181 226.377,256.181 233.252 M30.931 230.461 C 30.931 233.932,30.965 235.318,31.007 233.541 C 31.048 231.765,31.048 228.925,31.006 227.231 C 30.965 225.537,30.931 226.990,30.931 230.461 M230.639 225.000 C 230.639 225.467,230.689 225.658,230.750 225.425 C 230.811 225.191,230.811 224.809,230.750 224.575 C 230.689 224.342,230.639 224.533,230.639 225.000 M78.241 226.820 C 78.241 228.022,78.282 228.544,78.333 227.981 C 78.384 227.417,78.384 226.434,78.334 225.796 C 78.284 225.158,78.242 225.619,78.241 226.820 M118.047 226.820 C 118.047 228.022,118.088 228.544,118.139 227.981 C 118.189 227.417,118.190 226.434,118.140 225.796 C 118.090 225.158,118.048 225.619,118.047 226.820 M205.908 226.578 C 205.909 227.646,205.952 228.052,206.003 227.481 C 206.055 226.911,206.054 226.037,206.002 225.540 C 205.950 225.043,205.908 225.510,205.908 226.578 M300.086 226.820 C 300.085 228.022,300.126 228.544,300.177 227.981 C 300.228 227.417,300.229 226.434,300.179 225.796 C 300.129 225.158,300.087 225.619,300.086 226.820 M189.917 235.437 C 189.917 241.110,189.949 243.431,189.988 240.595 C 190.026 237.758,190.026 233.116,189.988 230.279 C 189.949 227.442,189.917 229.763,189.917 235.437 M230.644 228.034 C 230.646 228.568,230.696 228.758,230.754 228.456 C 230.812 228.154,230.810 227.717,230.749 227.485 C 230.689 227.253,230.641 227.500,230.644 228.034 M339.139 234.102 C 339.142 234.636,339.191 234.826,339.249 234.524 C 339.307 234.222,339.305 233.785,339.244 233.553 C 339.184 233.321,339.136 233.568,339.139 234.102 M323.301 235.801 C 322.711 236.402,322.284 236.893,322.350 236.893 C 322.417 236.893,322.954 236.402,323.544 235.801 C 324.133 235.200,324.561 234.709,324.494 234.709 C 324.428 234.709,323.891 235.200,323.301 235.801 M141.129 235.983 L 140.170 237.015 141.201 236.055 C 141.769 235.527,142.233 235.063,142.233 235.024 C 142.233 234.840,142.022 235.024,141.129 235.983 M56.169 241.141 C 56.169 243.677,56.205 244.682,56.249 243.373 C 56.293 242.065,56.293 239.990,56.249 238.762 C 56.205 237.534,56.169 238.604,56.169 241.141 M82.767 241.338 C 82.767 241.380,83.122 241.735,83.556 242.127 L 84.345 242.840 83.632 242.051 C 82.967 241.316,82.767 241.151,82.767 241.338 M122.573 241.338 C 122.573 241.380,122.928 241.735,123.362 242.127 L 124.150 242.840 123.438 242.051 C 122.773 241.316,122.573 241.151,122.573 241.338 M169.357 245.810 C 170.058 245.859,171.204 245.859,171.905 245.810 C 172.606 245.761,172.033 245.721,170.631 245.721 C 169.229 245.721,168.656 245.761,169.357 245.810 M358.070 246.284 C 358.304 246.345,358.686 246.345,358.920 246.284 C 359.154 246.223,358.962 246.173,358.495 246.173 C 358.028 246.173,357.837 246.223,358.070 246.284 " stroke="none" fill="#51609c" fill-rule="evenodd"></path></g></svg>